<svg xmlns="http://www.w3.org/2000/svg" width="700" height="380" viewBox="0 0 700 380">
<rect width="700" height="380" fill="white"/>
<line x1="56" y1="320" x2="656" y2="320" stroke="#222"/>
<line x1="56" y1="34" x2="56" y2="320" stroke="#222"/>
<text x="350" y="22" text-anchor="middle" font-family="Arial" font-size="16">Accuracy and agreement around shift</text>
<polyline fill="none" stroke="#222f8f" stroke-width="3" points="56.0,100.7 98.9,129.3 141.7,100.7 184.6,62.6 227.4,110.3 270.3,300.9 313.1,300.9 356.0,281.9 398.9,262.8 441.7,253.3 484.6,224.7 527.4,234.2 570.3,224.7 613.1,262.8 656.0,234.2"/>
<polyline fill="none" stroke="#c43c35" stroke-width="3" points="56.0,137.0 98.9,138.9 141.7,142.7 184.6,125.5 227.4,131.2 270.3,137.0 313.1,144.6 356.0,140.8 398.9,156.0 441.7,138.9 484.6,154.1 527.4,150.3 570.3,161.7 613.1,165.6 656.0,152.2"/>
<text x="570" y="54" font-family="Arial" font-size="12" fill="#222f8f">accuracy</text>
<text x="570" y="74" font-family="Arial" font-size="12" fill="#c43c35">agreement</text>
<line x1="52" y1="320.0" x2="56" y2="320.0" stroke="#222"/>
<text x="48" y="324.0" text-anchor="end" font-family="Arial" font-size="10">0.0</text>
<line x1="52" y1="177.0" x2="56" y2="177.0" stroke="#222"/>
<text x="48" y="181.0" text-anchor="end" font-family="Arial" font-size="10">0.5</text>
<line x1="52" y1="34.0" x2="56" y2="34.0" stroke="#222"/>
<text x="48" y="38.0" text-anchor="end" font-family="Arial" font-size="10">1.0</text>
<text x="56.0" y="338" text-anchor="middle" font-family="Arial" font-size="10">5</text>
<text x="98.9" y="338" text-anchor="middle" font-family="Arial" font-size="10">6</text>
<text x="141.7" y="338" text-anchor="middle" font-family="Arial" font-size="10">7</text>
<text x="184.6" y="338" text-anchor="middle" font-family="Arial" font-size="10">8</text>
<text x="227.4" y="338" text-anchor="middle" font-family="Arial" font-size="10">9</text>
<text x="270.3" y="338" text-anchor="middle" font-family="Arial" font-size="10">10</text>
<line x1="270.3" y1="34" x2="270.3" y2="320" stroke="#777" stroke-dasharray="4 4"/>
<text x="313.1" y="338" text-anchor="middle" font-family="Arial" font-size="10">11</text>
<text x="356.0" y="338" text-anchor="middle" font-family="Arial" font-size="10">12</text>
<text x="398.9" y="338" text-anchor="middle" font-family="Arial" font-size="10">13</text>
<text x="441.7" y="338" text-anchor="middle" font-family="Arial" font-size="10">14</text>
<text x="484.6" y="338" text-anchor="middle" font-family="Arial" font-size="10">15</text>
<text x="527.4" y="338" text-anchor="middle" font-family="Arial" font-size="10">16</text>
<text x="570.3" y="338" text-anchor="middle" font-family="Arial" font-size="10">17</text>
<text x="613.1" y="338" text-anchor="middle" font-family="Arial" font-size="10">18</text>
<text x="656.0" y="338" text-anchor="middle" font-family="Arial" font-size="10">19</text>
</svg>